<svg width="32" height="32" viewBox="0 0 32 32" fill="none" xmlns="http://www.w3.org/2000/svg">
<path d="M9.83334 22.3747L11.5 20.292L6.13467 16L11.5 11.708L9.83334 9.62535L3.16667 14.9587C3.01047 15.0836 2.88436 15.242 2.7977 15.4223C2.71104 15.6026 2.66605 15.8 2.66605 16C2.66605 16.2 2.71104 16.3975 2.7977 16.5777C2.88436 16.758 3.01047 16.9164 3.16667 17.0414L9.83334 22.3747ZM22.1667 9.62535L20.5 11.708L25.8653 16L20.5 20.292L22.1667 22.3747L28.8333 17.0414C28.9895 16.9164 29.1156 16.758 29.2023 16.5777C29.289 16.3975 29.334 16.2 29.334 16C29.334 15.8 29.289 15.6026 29.2023 15.4223C29.1156 15.242 28.9895 15.0836 28.8333 14.9587L22.1667 9.62535ZM19.968 4.28802L14.6347 28.288L12.0307 27.7094L17.364 3.70935L19.968 4.28802Z" fill="#ECF0F9"/>
</svg>
