<svg width="33" height="32" viewBox="0 0 33 32" fill="none" xmlns="http://www.w3.org/2000/svg">
<path d="M22.6387 14.7307C23.4507 13.3468 23.8014 11.7404 23.64 10.144C23.4013 7.76533 22.0733 5.66267 19.9027 4.224L18.4293 6.44533C19.9213 7.43467 20.8293 8.844 20.9867 10.4107C21.0592 11.1388 20.9686 11.8739 20.7213 12.5626C20.4741 13.2513 20.0764 13.8763 19.5573 14.392L17.968 15.9813L20.1253 16.6147C25.768 18.268 25.8333 23.9427 25.8333 24H28.5C28.5 21.6147 27.2253 16.9533 22.6387 14.7307Z" fill="#ECF0F9"/>
<path d="M13.1667 16C16.108 16 18.5 13.608 18.5 10.6666C18.5 7.72531 16.108 5.33331 13.1667 5.33331C10.2253 5.33331 7.83332 7.72531 7.83332 10.6666C7.83332 13.608 10.2253 16 13.1667 16ZM13.1667 7.99998C14.6373 7.99998 15.8333 9.19598 15.8333 10.6666C15.8333 12.1373 14.6373 13.3333 13.1667 13.3333C11.696 13.3333 10.5 12.1373 10.5 10.6666C10.5 9.19598 11.696 7.99998 13.1667 7.99998ZM15.1667 17.3333H11.1667C6.75466 17.3333 3.16666 20.9213 3.16666 25.3333V26.6666H5.83332V25.3333C5.83332 22.392 8.22532 20 11.1667 20H15.1667C18.108 20 20.5 22.392 20.5 25.3333V26.6666H23.1667V25.3333C23.1667 20.9213 19.5787 17.3333 15.1667 17.3333Z" fill="#ECF0F9"/>
</svg>
