<svg width="33" height="32" viewBox="0 0 33 32" fill="none" xmlns="http://www.w3.org/2000/svg">
<path d="M16.5 2.66669C9.14801 2.66669 3.16667 8.64802 3.16667 16C3.16667 23.352 9.14801 29.3334 16.5 29.3334C23.852 29.3334 29.8333 23.352 29.8333 16C29.8333 8.64802 23.852 2.66669 16.5 2.66669ZM16.5 26.6667C10.6187 26.6667 5.83334 21.8814 5.83334 16C5.83334 10.1187 10.6187 5.33335 16.5 5.33335C22.3813 5.33335 27.1667 10.1187 27.1667 16C27.1667 21.8814 22.3813 26.6667 16.5 26.6667Z" fill="#ECF0F9"/>
<path d="M20.272 19.7707C19.7846 20.2564 19.209 20.6447 18.576 20.9147C17.4364 21.3958 16.165 21.466 14.9794 21.1133C13.7937 20.7607 12.7674 20.007 12.076 18.9813L9.86533 20.4733C10.4419 21.3242 11.1755 22.0573 12.0267 22.6333C12.8929 23.2191 13.8661 23.6282 14.8907 23.8373C15.9531 24.054 17.0483 24.054 18.1107 23.8373C19.1351 23.6279 20.1083 23.2188 20.9747 22.6333C21.392 22.3507 21.7907 22.0227 22.156 21.6587C22.5187 21.2973 22.8493 20.8973 23.1347 20.4733L20.924 18.9813C20.7324 19.2646 20.514 19.529 20.272 19.7707Z" fill="#ECF0F9"/>
<path d="M11.8333 16C12.9379 16 13.8333 15.1046 13.8333 14C13.8333 12.8954 12.9379 12 11.8333 12C10.7288 12 9.83333 12.8954 9.83333 14C9.83333 15.1046 10.7288 16 11.8333 16Z" fill="#ECF0F9"/>
<path d="M21.1573 15.9813C22.2568 15.9813 23.148 15.0901 23.148 13.9907C23.148 12.8913 22.2568 12 21.1573 12C20.0579 12 19.1667 12.8913 19.1667 13.9907C19.1667 15.0901 20.0579 15.9813 21.1573 15.9813Z" fill="#ECF0F9"/>
</svg>
